<svg xmlns="http://www.w3.org/2000/svg" viewBox="0 0 30 30"><title>ban</title><path d="M26.63,16a10.31,10.31,0,0,0-1.7-5.74L10.2,24.91A10.47,10.47,0,0,0,16,26.64a10.32,10.32,0,0,0,4.13-.85,10.81,10.81,0,0,0,3.39-2.27,10.58,10.58,0,0,0,2.27-3.4A10.47,10.47,0,0,0,26.63,16ZM7.11,21.81,21.86,7.13A10.28,10.28,0,0,0,16,5.36a10.41,10.41,0,0,0-5.33,1.42,10.64,10.64,0,0,0-3.55,15ZM31,16a14.69,14.69,0,0,1-1.19,5.84,15.11,15.11,0,0,1-3.19,4.79,15,15,0,0,1-4.79,3.19,14.9,14.9,0,0,1-11.66,0,15,15,0,0,1-4.79-3.19,15.11,15.11,0,0,1-3.19-4.79,14.89,14.89,0,0,1,0-11.67A15.14,15.14,0,0,1,5.38,5.38a15,15,0,0,1,4.79-3.19,14.9,14.9,0,0,1,11.66,0,15,15,0,0,1,4.79,3.19,15.14,15.14,0,0,1,3.19,4.78A14.62,14.62,0,0,1,31,16Z" transform="translate(-1 -1)"/></svg>
