<svg id="Layer_1" data-name="Layer 1" xmlns="http://www.w3.org/2000/svg" viewBox="0 0 28.18 30"><title>calendar-o</title><path id="Shape" d="M29.45,5.92a2.09,2.09,0,0,0-1.52-.64H25.75V3.68A2.57,2.57,0,0,0,25,1.79,2.62,2.62,0,0,0,23,1H22A2.62,2.62,0,0,0,20,1.79a2.56,2.56,0,0,0-.8,1.89V5.29h-6.5V3.68A2.56,2.56,0,0,0,12,1.79,2.62,2.62,0,0,0,10,1H9A2.62,2.62,0,0,0,7,1.79a2.56,2.56,0,0,0-.8,1.89V5.29H4.08a2.09,2.09,0,0,0-1.52.64,2,2,0,0,0-.64,1.51V28.86a2,2,0,0,0,.64,1.51A2.1,2.1,0,0,0,4.08,31H27.92a2.09,2.09,0,0,0,1.52-.64,2,2,0,0,0,.64-1.51V7.43A2,2,0,0,0,29.45,5.92Zm-8-2.24a.52.52,0,0,1,.15-.39A.53.53,0,0,1,22,3.14H23a.53.53,0,0,1,.39.15.52.52,0,0,1,.15.39V8.5a.52.52,0,0,1-.15.39A.53.53,0,0,1,23,9H22a.53.53,0,0,1-.39-.15.52.52,0,0,1-.15-.39Zm-13,0a.52.52,0,0,1,.15-.39A.53.53,0,0,1,9,3.14H10a.53.53,0,0,1,.39.15.52.52,0,0,1,.15.39V8.5a.52.52,0,0,1-.15.39A.53.53,0,0,1,10,9H9a.53.53,0,0,1-.39-.15.52.52,0,0,1-.15-.39ZM27.92,28.86H4.08V11.71H27.92V28.86Z" transform="translate(-1.91 -1)"/></svg>