<svg id="Layer_1" data-name="Layer 1" xmlns="http://www.w3.org/2000/svg" viewBox="0 0 30 30"><title>caret-circle</title><path d="M29,8.47A14.93,14.93,0,0,0,23.53,3,14.67,14.67,0,0,0,16,1,14.67,14.67,0,0,0,8.47,3,14.93,14.93,0,0,0,3,8.47,14.67,14.67,0,0,0,1,16a14.67,14.67,0,0,0,2,7.53A14.93,14.93,0,0,0,8.47,29,14.67,14.67,0,0,0,16,31a14.67,14.67,0,0,0,7.53-2A14.93,14.93,0,0,0,29,23.53,14.67,14.67,0,0,0,31,16,14.67,14.67,0,0,0,29,8.47Zm-6.73,6.48-5.69,5.69a.8.8,0,0,1-1.14,0L9.74,14.95a.81.81,0,0,1,.57-1.38H21.69a.81.81,0,0,1,.57,1.38Z" transform="translate(-1 -1)"/></svg>