<svg xmlns="http://www.w3.org/2000/svg" viewBox="0 0 30 29.84"><title>circle-o-notch</title><path d="M31,15.92a14.67,14.67,0,0,1-1.19,5.83,14.73,14.73,0,0,1-8,8,14.9,14.9,0,0,1-11.67,0,14.73,14.73,0,0,1-8-8A15,15,0,0,1,2.68,9,15,15,0,0,1,13.78,1.08V5A10.85,10.85,0,0,0,7.41,8.87a10.74,10.74,0,0,0-2.53,7,10.8,10.8,0,0,0,.89,4.31,11,11,0,0,0,5.91,5.91,11,11,0,0,0,8.63,0,11,11,0,0,0,5.91-5.91,10.8,10.8,0,0,0,.89-4.31,10.74,10.74,0,0,0-2.53-7A10.85,10.85,0,0,0,18.22,5v-4A15,15,0,0,1,29.32,9,14.71,14.71,0,0,1,31,15.92Z" transform="translate(-1 -1.08)"/></svg>
