<svg id="Layer_1" data-name="Layer 1" xmlns="http://www.w3.org/2000/svg" viewBox="0 0 29.19 30"><title>cog</title><path id="Shape" d="M27.15,17.47A11.69,11.69,0,0,0,27.26,16a11.69,11.69,0,0,0-.11-1.47l3.17-2.47a.76.76,0,0,0,.18-1l-3-5.19a.75.75,0,0,0-.92-.33l-3.74,1.5A11,11,0,0,0,20.31,5.6l-.57-4A.73.73,0,0,0,19,1H13a.73.73,0,0,0-.74.63l-.57,4A11.53,11.53,0,0,0,9.16,7.08L5.43,5.57a.73.73,0,0,0-.92.33l-3,5.19a.74.74,0,0,0,.18,1l3.17,2.47A11.89,11.89,0,0,0,4.75,16a11.89,11.89,0,0,0,.11,1.47L1.69,19.94a.76.76,0,0,0-.18,1l3,5.19a.75.75,0,0,0,.92.33l3.74-1.5a11,11,0,0,0,2.54,1.47l.57,4A.73.73,0,0,0,13,31h6a.73.73,0,0,0,.74-.63l.57-4a11.53,11.53,0,0,0,2.54-1.47l3.74,1.5a.73.73,0,0,0,.92-.33l3-5.19a.76.76,0,0,0-.18-1ZM16,21.25A5.25,5.25,0,1,1,21.25,16,5.26,5.26,0,0,1,16,21.25Z" transform="translate(-1.41 -1)"/></svg>