<svg id="Layer_1" data-name="Layer 1" xmlns="http://www.w3.org/2000/svg" viewBox="0 0 30 28.18"><title>cogs</title><path id="Shape" d="M19.23,21.15a.54.54,0,0,0-.11-.31q-.88-1-1.41-1.8a7.68,7.68,0,0,0,.5-1.19l2.42-.38a.36.36,0,0,0,.25-.16A.51.51,0,0,0,21,17V14.12a.47.47,0,0,0-.11-.3.45.45,0,0,0-.27-.16l-2.38-.36A10.69,10.69,0,0,0,17.72,12q.23-.34.7-.94l.66-.84a.52.52,0,0,0,.11-.3q0-.42-2.25-2.5a.52.52,0,0,0-.33-.12.46.46,0,0,0-.31.11L14.45,8.81a6.88,6.88,0,0,0-1.17-.48l-.36-2.39a.4.4,0,0,0-.16-.27.48.48,0,0,0-.31-.12H9.55a.46.46,0,0,0-.47.37,18,18,0,0,0-.36,2.41,7.6,7.6,0,0,0-1.2.5L5.72,7.42a.56.56,0,0,0-.33-.11q-.3,0-1.23.92A13.25,13.25,0,0,0,2.88,9.62a.46.46,0,0,0-.11.31.59.59,0,0,0,.11.31q.87,1,1.41,1.8a7.71,7.71,0,0,0-.5,1.19l-2.42.37a.36.36,0,0,0-.25.16.51.51,0,0,0-.11.3V17a.47.47,0,0,0,.11.3.38.38,0,0,0,.27.15l2.38.38a8,8,0,0,0,.55,1.28q-.25.34-.73,1t-.64.83a.52.52,0,0,0-.11.3q0,.42,2.25,2.5a.52.52,0,0,0,.33.12.42.42,0,0,0,.31-.11l1.84-1.39a6.84,6.84,0,0,0,1.17.48l.36,2.39a.4.4,0,0,0,.16.27.48.48,0,0,0,.31.12h2.91a.46.46,0,0,0,.47-.37,18.63,18.63,0,0,0,.36-2.42,7.07,7.07,0,0,0,1.2-.48l1.8,1.41a.56.56,0,0,0,.33.11q.3,0,1.23-.93a16.34,16.34,0,0,0,1.29-1.4A.4.4,0,0,0,19.23,21.15Zm-5.41-2.78A3.85,3.85,0,0,1,11,19.55a4,4,0,0,1-4-4,4,4,0,0,1,4-4,4,4,0,0,1,4,4A3.85,3.85,0,0,1,13.83,18.37Z" transform="translate(-1 -1.91)"/><path id="Shape-2" data-name="Shape" d="M28.71,22.55a4.54,4.54,0,0,0-.46-.83A9.14,9.14,0,0,0,29,19.51.14.14,0,0,0,29,19.4q-1.85-1.12-1.91-1.12l-.09,0a14.64,14.64,0,0,0-1.42,1.8l-.46,0-.46,0q-.21-.34-.8-1.08t-.71-.75a3.71,3.71,0,0,0-.46.26l-.91.55-.54.32a.14.14,0,0,0-.06.11,9.15,9.15,0,0,0,.78,2.21,4.56,4.56,0,0,0-.46.83q-2.29.24-2.29.5V25.3q0,.26,2.29.5a4.69,4.69,0,0,0,.46.83,9.15,9.15,0,0,0-.78,2.21.14.14,0,0,0,.06.11q1.88,1.14,1.91,1.14t.71-.75q.58-.75.8-1.09l.46,0,.46,0q.21.34.8,1.09t.71.75S27.72,29.71,29,29a.14.14,0,0,0,.06-.11,9.16,9.16,0,0,0-.78-2.21,4.7,4.7,0,0,0,.46-.83Q31,25.55,31,25.3V23.05Q31,22.79,28.71,22.55Zm-2.22,3.07a1.91,1.91,0,0,1-2.78,0,2.09,2.09,0,0,1,0-2.89,1.88,1.88,0,0,1,2.77,0,2.09,2.09,0,0,1,0,2.89Z" transform="translate(-1 -1.91)"/><path id="Shape-3" data-name="Shape" d="M28.71,6.19a4.54,4.54,0,0,0-.46-.83A9.13,9.13,0,0,0,29,3.14.14.14,0,0,0,29,3q-1.85-1.12-1.91-1.12l-.09,0a14.65,14.65,0,0,0-1.42,1.8l-.46,0-.46,0q-.21-.34-.8-1.08t-.71-.75a3.72,3.72,0,0,0-.46.26l-.91.55L21.21,3a.14.14,0,0,0-.06.11,9.14,9.14,0,0,0,.78,2.21,4.55,4.55,0,0,0-.46.83q-2.29.24-2.29.5V8.93q0,.26,2.29.5a4.72,4.72,0,0,0,.46.83,9.15,9.15,0,0,0-.78,2.21.14.14,0,0,0,.06.11q1.88,1.14,1.91,1.14t.71-.75q.58-.75.8-1.09l.46,0,.46,0q.21.34.8,1.09t.71.75s.66-.38,1.91-1.14a.14.14,0,0,0,.06-.11,9.15,9.15,0,0,0-.78-2.21,4.72,4.72,0,0,0,.46-.83Q31,9.19,31,8.93V6.69Q31,6.43,28.71,6.19ZM26.48,9.26a1.91,1.91,0,0,1-2.78,0,2.09,2.09,0,0,1,0-2.89,1.88,1.88,0,0,1,2.77,0,2.09,2.09,0,0,1,0,2.89Z" transform="translate(-1 -1.91)"/></svg>