<svg id="Layer_1" data-name="Layer 1" xmlns="http://www.w3.org/2000/svg" viewBox="0 0 26.25 30"><title>files-o-text</title><rect id="Rectangle" x="19.38" y="4.88" width="1.02" height="8.53" transform="translate(-3.52 15.75) rotate(-45)"/><rect id="Rectangle-10" y="4.77" width="14.32" height="1.02"/><rect id="Rectangle-10-2" data-name="Rectangle-10" y="28.98" width="20.45" height="1.02"/><rect id="Rectangle-10-3" data-name="Rectangle-10" y="5.8" width="1.02" height="23.18"/><rect id="Rectangle-2" x="3.75" y="24.2" width="12.95" height="1.02"/><rect id="Rectangle-2-2" data-name="Rectangle-2" x="3.75" y="20.8" width="12.95" height="1.02"/><rect id="Rectangle-2-3" data-name="Rectangle-2" x="3.75" y="17.39" width="12.95" height="1.02"/><rect id="Rectangle-2-4" data-name="Rectangle-2" x="3.75" y="13.98" width="12.95" height="1.02"/><rect id="Rectangle-10-4" data-name="Rectangle-10" x="19.43" y="10.91" width="1.02" height="18.07"/><rect id="Rectangle-9" x="12.95" y="5.8" width="1.02" height="6.14"/><rect id="Rectangle-9-2" data-name="Rectangle-9" x="13.3" y="10.91" width="7.16" height="1.02"/><rect id="Rectangle-2-5" data-name="Rectangle" x="25.17" y="0.11" width="1.02" height="8.53" transform="translate(1.55 18.45) rotate(-45)"/><rect id="Rectangle-10-5" data-name="Rectangle-10" x="5.8" width="14.32" height="1.02"/><rect id="Rectangle-10-6" data-name="Rectangle-10" x="19.77" y="24.2" width="6.48" height="1.02"/><rect id="Rectangle-10-7" data-name="Rectangle-10" x="5.8" width="1.02" height="5.8"/><rect id="Rectangle-10-8" data-name="Rectangle-10" x="25.23" y="6.14" width="1.02" height="18.07"/><rect id="Rectangle-9-3" data-name="Rectangle-9" x="18.75" y="1.02" width="1.02" height="6.14"/><rect id="Rectangle-9-4" data-name="Rectangle-9" x="19.09" y="6.14" width="7.16" height="1.02"/></svg>