<svg id="Layer_1" data-name="Layer 1" xmlns="http://www.w3.org/2000/svg" viewBox="0 0 30 30"><title>globe</title><g id="Page-1"><g id="Core"><g id="language"><path id="Shape" d="M16,1A15,15,0,1,0,31,16,15,15,0,0,0,16,1Zm10.35,9H22a23.71,23.71,0,0,0-2.1-5.4A12.07,12.07,0,0,1,26.35,10ZM16,4a20.14,20.14,0,0,1,2.85,6h-5.7A22.05,22.05,0,0,1,16,4ZM4.45,19A9.67,9.67,0,0,1,4,16a9.67,9.67,0,0,1,.45-3h5.1a20.1,20.1,0,0,0-.15,3c0,1,.15,2,.15,3Zm1.2,3H10a23.71,23.71,0,0,0,2.1,5.4A12.07,12.07,0,0,1,5.65,22ZM10,10H5.65A12.64,12.64,0,0,1,12.1,4.6,23.71,23.71,0,0,0,10,10Zm6,18a20.14,20.14,0,0,1-2.85-6h5.7A22.05,22.05,0,0,1,16,28Zm3.45-9h-6.9a20.33,20.33,0,0,1-.3-3,20.33,20.33,0,0,1,.3-3h7a20.33,20.33,0,0,1,.3,3,20.71,20.71,0,0,1-.45,3Zm.45,8.4A21.28,21.28,0,0,0,22,22h4.35a12.07,12.07,0,0,1-6.45,5.4ZM22.6,19a20.1,20.1,0,0,0,.15-3c0-1-.15-2-.15-3h5.1a9.67,9.67,0,0,1,.45,3,9.67,9.67,0,0,1-.45,3Z" transform="translate(-1 -1)"/></g></g></g></svg>