<svg id="Layer_1" data-name="Layer 1" xmlns="http://www.w3.org/2000/svg" viewBox="0 0 30 28.25"><title>hierarchy</title><path d="M21.65,8.67H10.35V.88h11.3ZM12.3,6.72h7.4V2.83H12.3Z" transform="translate(-1 -0.88)"/><path d="M20.48,29.12h-9V21.33h9Zm-7-1.95h5.06v-3.9H13.47Z" transform="translate(-1 -0.88)"/><path d="M10,29.12H1V21.33h9Zm-7-1.95H8v-3.9H2.95Z" transform="translate(-1 -0.88)"/><path d="M31,29.12H22V21.33h9Zm-7-1.95h5.07v-3.9H24Z" transform="translate(-1 -0.88)"/><path d="M16,23.28a1,1,0,0,1-1-1V7.7A1,1,0,0,1,17,7.7V22.3A1,1,0,0,1,16,23.28Z" transform="translate(-1 -0.88)"/><path d="M26.52,23.28a1,1,0,0,1-1-1V15.68H6.45V22.3a1,1,0,1,1-1.95,0V13.73h23V22.3A1,1,0,0,1,26.52,23.28Z" transform="translate(-1 -0.88)"/></svg>