<svg id="Layer_1" data-name="Layer 1" xmlns="http://www.w3.org/2000/svg" viewBox="0 0 30 30"><title>image-symbol</title><g id="Symbols"><g id="Control-Panel-Side-Bar-Roles"><g id="drive-drawing"><path id="Shape" d="M27.67,1H4.33A3.34,3.34,0,0,0,1,4.33V27.67A3.34,3.34,0,0,0,4.33,31H27.67A3.34,3.34,0,0,0,31,27.67V4.33A3.34,3.34,0,0,0,27.67,1ZM26,26H16V16.33A6.23,6.23,0,0,1,11.83,18a6.26,6.26,0,0,1-6.17-6.17,6.26,6.26,0,0,1,6.17-6.17A6.26,6.26,0,0,1,18,11.83,6.23,6.23,0,0,1,16.33,16H26V26Z" transform="translate(-1 -1)"/></g></g></g></svg>