<svg xmlns="http://www.w3.org/2000/svg" viewBox="0 0 30 30"><title>info-circle</title><path d="M21,25.38V22.25a.6.6,0,0,0-.62-.62H18.5v-10a.6.6,0,0,0-.62-.62H11.63a.6.6,0,0,0-.62.63v3.13a.6.6,0,0,0,.63.63H13.5v6.25H11.63a.6.6,0,0,0-.62.63v3.13a.6.6,0,0,0,.63.63h8.75a.6.6,0,0,0,.63-.62ZM18.5,7.88V4.75a.6.6,0,0,0-.62-.62H14.13a.6.6,0,0,0-.62.63V7.88a.6.6,0,0,0,.63.63h3.75a.6.6,0,0,0,.63-.62ZM31,16a14.67,14.67,0,0,1-2,7.53A14.93,14.93,0,0,1,23.53,29,14.67,14.67,0,0,1,16,31a14.67,14.67,0,0,1-7.53-2A14.93,14.93,0,0,1,3,23.53,14.67,14.67,0,0,1,1,16,14.67,14.67,0,0,1,3,8.47,14.93,14.93,0,0,1,8.47,3,14.67,14.67,0,0,1,16,1a14.67,14.67,0,0,1,7.53,2A14.93,14.93,0,0,1,29,8.47,14.67,14.67,0,0,1,31,16Z" transform="translate(-1 -1)"/></svg>
