<svg id="Layer_1" data-name="Layer 1" xmlns="http://www.w3.org/2000/svg" viewBox="0 0 23 30"><title>lock</title><g id="Symbols"><g id="Control-Panel-Side-Bar-Roles"><g id="lock"><path id="Shape" d="M24.63,11H23.19V8.14A7.1,7.1,0,0,0,16,1,7.1,7.1,0,0,0,8.81,8.14V11H7.38A2.87,2.87,0,0,0,4.5,13.86V28.14A2.87,2.87,0,0,0,7.38,31H24.63a2.87,2.87,0,0,0,2.88-2.86V13.86A2.87,2.87,0,0,0,24.63,11ZM16.5,24a3,3,0,1,1,3-3,3,3,0,0,1-3,3Zm4-13h-9V8.25A4.4,4.4,0,0,1,16,4a4.4,4.4,0,0,1,4.5,4.25V11Z" transform="translate(-4.5 -1)"/></g></g></g></svg>