<svg id="Layer_1" data-name="Layer 1" xmlns="http://www.w3.org/2000/svg" viewBox="0 0 30 30"><title>minus-square-o</title><path d="M25.55,15.32v1.36a.66.66,0,0,1-.68.68H7.14a.66.66,0,0,1-.68-.68V15.32a.66.66,0,0,1,.68-.68H24.86a.66.66,0,0,1,.68.68Zm2.73,9.55V7.14a3.28,3.28,0,0,0-1-2.41,3.28,3.28,0,0,0-2.41-1H7.14a3.28,3.28,0,0,0-2.41,1,3.28,3.28,0,0,0-1,2.41V24.86a3.28,3.28,0,0,0,1,2.41,3.28,3.28,0,0,0,2.41,1H24.86a3.42,3.42,0,0,0,3.41-3.41ZM31,7.14V24.86A6.15,6.15,0,0,1,24.86,31H7.14A5.91,5.91,0,0,1,2.8,29.2,5.91,5.91,0,0,1,1,24.86V7.14A5.91,5.91,0,0,1,2.8,2.8,5.91,5.91,0,0,1,7.14,1H24.86A5.91,5.91,0,0,1,29.2,2.8,5.91,5.91,0,0,1,31,7.14Z" transform="translate(-1 -1)"/></svg>