<svg xmlns="http://www.w3.org/2000/svg" viewBox="0 0 30 30"><title>pencil</title><path d="M8.19,28.47l1.8-1.8L5.34,22l-1.8,1.8v2.12H6.07v2.53ZM18.54,10.09a.39.39,0,0,0-.44-.44.46.46,0,0,0-.34.14L7,20.52a.46.46,0,0,0-.14.34.39.39,0,0,0,.44.44.46.46,0,0,0,.34-.14L18.41,10.43A.46.46,0,0,0,18.54,10.09Zm-1.07-3.8,8.24,8.24L9.24,31H1V22.76ZM31,8.19A2.43,2.43,0,0,1,30.27,10L27,13.26,18.74,5,22,1.75A2.35,2.35,0,0,1,23.81,1a2.46,2.46,0,0,1,1.8.75l4.65,4.63A2.54,2.54,0,0,1,31,8.19Z" transform="translate(-1 -1)"/></svg>
