<svg id="Layer_1" data-name="Layer 1" xmlns="http://www.w3.org/2000/svg" viewBox="0 0 30 30"><title>plus-circle</title><path d="M24.75,17.25v-2.5A1.27,1.27,0,0,0,23.5,13.5h-5v-5a1.27,1.27,0,0,0-1.25-1.25h-2.5A1.27,1.27,0,0,0,13.5,8.5v5h-5a1.27,1.27,0,0,0-1.25,1.25v2.5A1.27,1.27,0,0,0,8.5,18.5h5v5a1.27,1.27,0,0,0,1.25,1.25h2.5A1.27,1.27,0,0,0,18.5,23.5v-5h5a1.27,1.27,0,0,0,1.25-1.25ZM31,16a14.67,14.67,0,0,1-2,7.53A14.93,14.93,0,0,1,23.53,29,14.67,14.67,0,0,1,16,31a14.67,14.67,0,0,1-7.53-2A14.93,14.93,0,0,1,3,23.53,14.67,14.67,0,0,1,1,16,14.67,14.67,0,0,1,3,8.47,14.93,14.93,0,0,1,8.47,3,14.67,14.67,0,0,1,16,1a14.67,14.67,0,0,1,7.53,2A14.93,14.93,0,0,1,29,8.47,14.67,14.67,0,0,1,31,16Z" transform="translate(-1 -1)"/></svg>