<svg xmlns="http://www.w3.org/2000/svg" viewBox="0 0 18.17 30"><title>question</title><path d="M13,21.75a17.79,17.79,0,0,1,.15-2.45,8.51,8.51,0,0,1,.51-2,7.28,7.28,0,0,1,.95-1.68,11.38,11.38,0,0,1,1.45-1.56q.69-.6,1.27-1.18a9.64,9.64,0,0,0,1-1.15A4.82,4.82,0,0,0,19,10.53a3.94,3.94,0,0,0,.23-1.36,3.62,3.62,0,0,0-.8-2.56,3.07,3.07,0,0,0-2.35-.85,4,4,0,0,0-1.22.19,2.85,2.85,0,0,0-1.06.61,3.09,3.09,0,0,0-.75,1.08,4.17,4.17,0,0,0-.3,1.56H6.92a8.72,8.72,0,0,1,.75-3.66A7.21,7.21,0,0,1,9.62,3a8.18,8.18,0,0,1,2.89-1.5A12.52,12.52,0,0,1,16.09,1a12.67,12.67,0,0,1,3.79.52A7.8,7.8,0,0,1,22.7,3a6.56,6.56,0,0,1,1.76,2.48,8.75,8.75,0,0,1,.61,3.38,6.75,6.75,0,0,1-.4,2.4,8.62,8.62,0,0,1-1.09,2A14.61,14.61,0,0,1,22,15.14q-.89.88-1.87,1.78a6.93,6.93,0,0,0-.94,1,5.33,5.33,0,0,0-.6,1.1,5.17,5.17,0,0,0-.32,1.23,13,13,0,0,0-.11,1.44Zm-.58,6.19a3.21,3.21,0,0,1,.23-1.23,2.88,2.88,0,0,1,.66-1,3.1,3.1,0,0,1,1-.66,3.89,3.89,0,0,1,2.7,0,3.1,3.1,0,0,1,1,.66,2.88,2.88,0,0,1,.66,1A3.21,3.21,0,0,1,19,27.94a3.15,3.15,0,0,1-.23,1.21,2.88,2.88,0,0,1-.66,1,3,3,0,0,1-1,.65,4.05,4.05,0,0,1-2.7,0,3,3,0,0,1-1-.65,2.88,2.88,0,0,1-.66-1A3.15,3.15,0,0,1,12.42,27.94Z" transform="translate(-6.92 -1)"/></svg>