<svg id="Layer_1" data-name="Layer 1" xmlns="http://www.w3.org/2000/svg" viewBox="0 0 30 30"><title>remove</title><path d="M31,25.14a2.34,2.34,0,0,1-.71,1.72l-3.43,3.43a2.44,2.44,0,0,1-3.43,0L16,22.87,8.58,30.29A2.34,2.34,0,0,1,6.86,31a2.34,2.34,0,0,1-1.72-.71L1.71,26.86a2.44,2.44,0,0,1,0-3.43L9.13,16,1.71,8.58A2.34,2.34,0,0,1,1,6.86a2.34,2.34,0,0,1,.71-1.72L5.14,1.71A2.34,2.34,0,0,1,6.86,1a2.34,2.34,0,0,1,1.72.71L16,9.13l7.42-7.42a2.44,2.44,0,0,1,3.43,0l3.43,3.43A2.34,2.34,0,0,1,31,6.86a2.34,2.34,0,0,1-.71,1.72L22.87,16l7.42,7.42A2.34,2.34,0,0,1,31,25.14Z" transform="translate(-1 -1)"/></svg>