<svg xmlns="http://www.w3.org/2000/svg" viewBox="0 0 30 30"><title>search</title><path d="M21.77,13.69A7.78,7.78,0,0,0,19.4,8a7.78,7.78,0,0,0-5.71-2.37A7.78,7.78,0,0,0,8,8a7.78,7.78,0,0,0-2.37,5.71A7.78,7.78,0,0,0,8,19.4a7.78,7.78,0,0,0,5.71,2.37A7.78,7.78,0,0,0,19.4,19.4,7.78,7.78,0,0,0,21.77,13.69Zm9.23,15A2.34,2.34,0,0,1,28.69,31a2.14,2.14,0,0,1-1.62-.69l-6.18-6.17a12.35,12.35,0,0,1-7.19,2.24,12.47,12.47,0,0,1-4.93-1A12.43,12.43,0,0,1,2,18.62,12.65,12.65,0,0,1,2,8.76,12.43,12.43,0,0,1,8.76,2a12.65,12.65,0,0,1,9.86,0,12.43,12.43,0,0,1,6.76,6.76,12.47,12.47,0,0,1,1,4.93,12.35,12.35,0,0,1-2.24,7.19l6.18,6.18A2.21,2.21,0,0,1,31,28.69Z" transform="translate(-1 -1)"/></svg>
