<svg xmlns="http://www.w3.org/2000/svg" viewBox="0 0 30 30"><title>tick-circle</title><path d="M26.08,12.84a1.22,1.22,0,0,0-.35-.9l-1.78-1.76a1.23,1.23,0,0,0-1.76,0l-8,7.95L9.81,13.71a1.23,1.23,0,0,0-1.76,0L6.27,15.47a1.22,1.22,0,0,0-.35.9,1.19,1.19,0,0,0,.35.88l7.07,7.07a1.2,1.2,0,0,0,.88.37,1.22,1.22,0,0,0,.9-.37L25.73,13.71A1.19,1.19,0,0,0,26.08,12.84ZM31,16a14.67,14.67,0,0,1-2,7.53A14.93,14.93,0,0,1,23.53,29,14.67,14.67,0,0,1,16,31a14.67,14.67,0,0,1-7.53-2A14.93,14.93,0,0,1,3,23.53,14.67,14.67,0,0,1,1,16,14.67,14.67,0,0,1,3,8.47,14.93,14.93,0,0,1,8.47,3,14.67,14.67,0,0,1,16,1a14.67,14.67,0,0,1,7.53,2A14.93,14.93,0,0,1,29,8.47,14.67,14.67,0,0,1,31,16Z" transform="translate(-1 -1)"/></svg>
