<svg xmlns="http://www.w3.org/2000/svg" viewBox="0 0 27.5 30"><title>trash</title><path d="M12.25,25.38V11.63a.6.6,0,0,0-.62-.62H10.38a.6.6,0,0,0-.62.63V25.38a.6.6,0,0,0,.63.63h1.25a.6.6,0,0,0,.63-.62Zm5,0V11.63a.6.6,0,0,0-.62-.62H15.38a.6.6,0,0,0-.62.63V25.38a.6.6,0,0,0,.63.63h1.25a.6.6,0,0,0,.63-.62Zm5,0V11.63a.6.6,0,0,0-.62-.62H20.38a.6.6,0,0,0-.62.63V25.38a.6.6,0,0,0,.63.63h1.25a.6.6,0,0,0,.63-.62ZM11.63,6h8.75l-.94-2.29a.55.55,0,0,0-.33-.21H12.91a.55.55,0,0,0-.33.21Zm18.13.63V7.88a.6.6,0,0,1-.62.63H27.25V27a4.43,4.43,0,0,1-.92,2.8A2.72,2.72,0,0,1,24.13,31H7.88a2.75,2.75,0,0,1-2.21-1.14,4.27,4.27,0,0,1-.92-2.76V8.5H2.88a.6.6,0,0,1-.62-.62V6.63A.6.6,0,0,1,2.88,6h6l1.37-3.26a2.71,2.71,0,0,1,1.05-1.23A2.76,2.76,0,0,1,12.88,1h6.25a2.76,2.76,0,0,1,1.54.51,2.71,2.71,0,0,1,1.05,1.23L23.09,6h6a.6.6,0,0,1,.63.63Z" transform="translate(-2.25 -1)"/></svg>
