<svg id="Layer_1" data-name="Layer 1" xmlns="http://www.w3.org/2000/svg" viewBox="0 0 30 30"><title>user-circle</title><path d="M26.5,23.42A10.74,10.74,0,0,0,25,19.11a4.17,4.17,0,0,0-3.09-2,8,8,0,0,1-11.89,0,4.17,4.17,0,0,0-3.09,2A10.74,10.74,0,0,0,5.5,23.42a12.83,12.83,0,0,0,4.54,4,12.53,12.53,0,0,0,6,1.46,12.53,12.53,0,0,0,6-1.46A12.83,12.83,0,0,0,26.5,23.42Zm-4.07-11.7a6.19,6.19,0,0,0-1.88-4.55A6.19,6.19,0,0,0,16,5.29a6.19,6.19,0,0,0-4.55,1.88,6.19,6.19,0,0,0-1.88,4.55,6.19,6.19,0,0,0,1.88,4.55A6.19,6.19,0,0,0,16,18.14a6.19,6.19,0,0,0,4.55-1.88A6.19,6.19,0,0,0,22.43,11.71ZM31,16a14.6,14.6,0,0,1-1.19,5.82,15.27,15.27,0,0,1-3.19,4.79,14.9,14.9,0,0,1-4.78,3.21,14.91,14.91,0,0,1-11.67,0,14.74,14.74,0,0,1-8-8,14.87,14.87,0,0,1,0-11.65,14.74,14.74,0,0,1,8-8,14.87,14.87,0,0,1,11.65,0,14.74,14.74,0,0,1,8,8A14.66,14.66,0,0,1,31,16Z" transform="translate(-1 -1)"/></svg>