<svg id="Layer_1" data-name="Layer 1" xmlns="http://www.w3.org/2000/svg" viewBox="0 0 30 19.69"><title>user-group</title><g id="Symbols"><g id="Control-Panel-Side-Bar-Roles"><g id="group"><path id="Shape" d="M21.36,15.41A4.25,4.25,0,0,0,25.64,11a4.29,4.29,0,1,0-8.57,0,4.25,4.25,0,0,0,4.29,4.37Zm-10.71,0A4.25,4.25,0,0,0,14.93,11a4.29,4.29,0,1,0-8.57,0,4.25,4.25,0,0,0,4.29,4.37Zm0,2.19C7.47,17.59,1,19.34,1,22.7v3.65H20.29V22.7c0-3.35-6.47-5.1-9.64-5.1Zm11,0a4.63,4.63,0,0,0-1.34.15,6.13,6.13,0,0,1,2.68,5v3.65h8V22.7c0-3.35-6.29-5.1-9.37-5.1Z" transform="translate(-1 -6.66)"/></g></g></g></svg>