<svg xmlns="http://www.w3.org/2000/svg" viewBox="0 0 30 27.83"><title>warning</title><path d="M18.14,25.08V21.9a.53.53,0,0,0-.16-.39.51.51,0,0,0-.38-.16H14.39a.51.51,0,0,0-.38.16.53.53,0,0,0-.16.39v3.18a.53.53,0,0,0,.16.39.51.51,0,0,0,.38.16h3.21a.51.51,0,0,0,.38-.16A.53.53,0,0,0,18.14,25.08Zm0-6.25.3-7.68a.37.37,0,0,0-.17-.32.65.65,0,0,0-.4-.18H14.16a.65.65,0,0,0-.4.18.4.4,0,0,0-.17.35l.28,7.64a.32.32,0,0,0,.17.28.72.72,0,0,0,.4.11h3.09a.68.68,0,0,0,.39-.11A.37.37,0,0,0,18.11,18.83ZM17.87,3.21,30.72,26.75a2,2,0,0,1,0,2.11,2.14,2.14,0,0,1-1.84,1.05H3.16a2.14,2.14,0,0,1-1.84-1.05,2,2,0,0,1,0-2.11L14.13,3.21a2.14,2.14,0,0,1,.79-.82,2.11,2.11,0,0,1,2.17,0A2.14,2.14,0,0,1,17.87,3.21Z" transform="translate(-1 -2.09)"/></svg>
