<svg id="Layer_1" data-name="Layer 1" xmlns="http://www.w3.org/2000/svg" viewBox="0 0 164.43 129.97"><title>add-employees-active</title><g id="Onboarding"><g id="employees"><g id="icon-active"><path id="Combined-Shape" d="M152.92,24.66h-65a13.29,13.29,0,0,0,0,26.57h65a13.29,13.29,0,0,0,0-26.57Z" transform="translate(-1.28 -1.02)" fill="#a7a7a7" fill-opacity="0.1"/><path id="Combined-Shape-2" data-name="Combined-Shape" d="M79.07,69h-65a13.29,13.29,0,0,0,0,26.57h65a13.29,13.29,0,0,0,0-26.57Z" transform="translate(-1.28 -1.02)" fill="#a7a7a7" fill-opacity="0.1"/><path id="Combined-Shape-3" data-name="Combined-Shape" d="M84,130A64,64,0,1,0,20,66,64,64,0,0,0,84,130Z" transform="translate(-1.28 -1.02)" fill="none" stroke="#a7a7a7" stroke-width="1.97"/><g id="Group-2"><path id="Combined-Shape-4" data-name="Combined-Shape" d="M88.92,65V88.65a8.86,8.86,0,0,0,8.86,8.86h31.51a8.86,8.86,0,0,0,8.86-8.86v-23A45.82,45.82,0,0,0,88.92,65Z" transform="translate(-1.28 -1.02)" fill="none" stroke="#00a5e5" stroke-width="1.97"/><circle id="Oval-4" cx="111.75" cy="41.85" r="15.26" fill="none" stroke="#00a5e5" stroke-width="1.97"/><rect id="Rectangle-9" x="111.26" y="58.09" width="1.97" height="14.77" fill="#00a5e5"/><rect id="Rectangle-10" x="121.11" y="69.91" width="10.83" height="3.94" fill="none" stroke="#00a5e5" stroke-width="1.97"/><path id="Rectangle-11" d="M113.53,79.78h0a2,2,0,0,1,2,2h0a2,2,0,0,1-2,2h0a2,2,0,0,1-2-2h0A2,2,0,0,1,113.53,79.78Z" transform="translate(-1.28 -1.02)" fill="#00a5e5"/><path id="Rectangle-11-2" data-name="Rectangle-11" d="M113.53,89.63h0a2,2,0,0,1,2,2h0a2,2,0,0,1-2,2h0a2,2,0,0,1-2-2h0A2,2,0,0,1,113.53,89.63Z" transform="translate(-1.28 -1.02)" fill="#00a5e5"/></g><g id="Group"><path id="Combined-Shape-5" data-name="Combined-Shape" d="M29.84,65V88.65a8.86,8.86,0,0,0,8.86,8.86H70.21a8.86,8.86,0,0,0,8.86-8.86v-23A45.82,45.82,0,0,0,29.84,65Z" transform="translate(-1.28 -1.02)" fill="none" stroke="#00a5e5" stroke-width="1.97"/><circle id="Oval-4-2" data-name="Oval-4" cx="52.68" cy="41.85" r="15.26" fill="none" stroke="#00a5e5" stroke-width="1.97"/><rect id="Rectangle-9-2" data-name="Rectangle-9" x="52.18" y="58.09" width="1.97" height="14.77" fill="#00a5e5"/><rect id="Rectangle-10-2" data-name="Rectangle-10" x="62.03" y="69.91" width="10.83" height="3.94" fill="none" stroke="#00a5e5" stroke-width="1.97"/><path id="Rectangle-11-3" data-name="Rectangle-11" d="M54.45,79.78h0a2,2,0,0,1,2,2h0a2,2,0,0,1-2,2h0a2,2,0,0,1-2-2h0A2,2,0,0,1,54.45,79.78Z" transform="translate(-1.28 -1.02)" fill="#00a5e5"/><path id="Rectangle-11-4" data-name="Rectangle-11" d="M54.45,89.63h0a2,2,0,0,1,2,2h0a2,2,0,0,1-2,2h0a2,2,0,0,1-2-2h0A2,2,0,0,1,54.45,89.63Z" transform="translate(-1.28 -1.02)" fill="#00a5e5"/></g></g></g></g></svg>