<svg id="Layer_1" data-name="Layer 1" xmlns="http://www.w3.org/2000/svg" viewBox="0 0 164.43 129.97"><title>add-locations-active</title><g id="Onboarding"><g id="locations"><g id="icon-active"><path id="Combined-Shape" d="M152.92,24.66h-65a13.29,13.29,0,0,0,0,26.57h65a13.29,13.29,0,0,0,0-26.57Z" transform="translate(-1.28 -1.02)" fill="#a7a7a7" fill-opacity="0.1"/><path id="Combined-Shape-2" data-name="Combined-Shape" d="M79.07,69h-65a13.29,13.29,0,0,0,0,26.57h65a13.29,13.29,0,0,0,0-26.57Z" transform="translate(-1.28 -1.02)" fill="#a7a7a7" fill-opacity="0.1"/><path id="Combined-Shape-3" data-name="Combined-Shape" d="M33.68,26.44A63.86,63.86,0,1,0,60.09,6.61,16.74,16.74,0,0,0,33.68,26.44Z" transform="translate(-1.28 -1.02)" fill="none" stroke="#a7a7a7" stroke-width="1.97"/><rect id="Rectangle-5" x="26.58" y="94.52" width="113.23" height="1.97" fill="#00a5e5"/><rect id="Rectangle-5-2" data-name="Rectangle-5" x="42.34" y="114.22" width="79.75" height="1.97" fill="#00a5e5"/><rect id="Rectangle-5-3" data-name="Rectangle-5" x="19.69" y="74.83" width="73.85" height="1.97" fill="#00a5e5"/><rect id="Rectangle-5-4" data-name="Rectangle-5" x="122.09" y="74.83" width="24.62" height="1.97" fill="#00a5e5"/><ellipse id="Oval-6" cx="106.34" cy="95.51" rx="16.74" ry="5.91" fill="#e5f6fc"/><path id="Combined-Shape-4" data-name="Combined-Shape" d="M101.11,82.94a16.74,16.74,0,1,1,15,0l-7.49,13.58Z" transform="translate(-1.28 -1.02)" fill="none" stroke="#00a5e5" stroke-width="1.97"/><circle id="Oval-5" cx="107.32" cy="66.95" r="8.86" fill="#e5f6fc" stroke="#00a5e5" stroke-width="1.97"/><ellipse id="Oval-6-2" data-name="Oval-6" cx="46.28" cy="46.28" rx="16.74" ry="5.91" fill="#e5f6fc"/><path id="Combined-Shape-5" data-name="Combined-Shape" d="M41.05,33.71a16.74,16.74,0,1,1,15,0L48.55,47.29Z" transform="translate(-1.28 -1.02)" fill="none" stroke="#00a5e5" stroke-width="1.97"/><circle id="Oval-5-2" data-name="Oval-5" cx="47.26" cy="17.72" r="8.86" fill="#e5f6fc" stroke="#00a5e5" stroke-width="1.97"/></g></g></g></svg>