<?xml version="1.0" encoding="UTF-8"?>
<svg width="167px" height="134px" viewBox="0 0 167 134" version="1.1" xmlns="http://www.w3.org/2000/svg" xmlns:xlink="http://www.w3.org/1999/xlink">
    <!-- Generator: Sketch 45.2 (43514) - http://www.bohemiancoding.com/sketch -->
    <title>icon done</title>
    <desc>Created with Sketch.</desc>
    <defs></defs>
    <g id="Onboarding" stroke="none" stroke-width="1" fill="none" fill-rule="evenodd">
        <g transform="translate(-237.000000, -369.000000)" id="company">
            <g transform="translate(138.000000, 321.000000)">
                <g id="icon-done" transform="translate(99.000000, 48.000000)">
                    <rect id="Rectangle-12" fill="#00A5E5" x="30" y="104" width="8" height="2"></rect>
                    <rect id="Rectangle-11" fill="#00A5E5" x="36" y="93" width="2" height="13"></rect>
                    <rect id="Rectangle-10" fill="#00A5E5" x="24" y="92" width="14" height="2"></rect>
                    <rect id="Rectangle-9" stroke="#00A5E5" stroke-width="2" x="25" y="53" width="12" height="12"></rect>
                    <rect id="Rectangle-9" stroke="#00A5E5" stroke-width="2" x="25" y="73" width="12" height="12"></rect>
                    <rect id="Rectangle-6" fill="#00A5E5" x="24" y="42" width="20" height="2"></rect>
                    <rect id="Rectangle-6" fill="#00A5E5" x="124" y="68" width="25" height="2"></rect>
                    <path d="M154,28.0090877 L154,28 L88,28 L88,28.0090877 C80.7758005,28.2721137 75,34.2115516 75,41.5 C75,48.7884484 80.7758005,54.7278863 88,54.9909123 L88,55 L154,55 L154,54.9909123 C161.2242,54.7278863 167,48.7884484 167,41.5 C167,34.2115516 161.2242,28.2721137 154,28.0090877 Z" id="Combined-Shape" fill-opacity="0.1" fill="#00A5E5"></path>
                    <path d="M79,73.0090877 L79,73 L13,73 L13,73.0090877 C5.77580047,73.2721137 0,79.2115516 0,86.5 C0,93.7884484 5.77580047,99.7278863 13,99.9909123 L13,100 L79,100 L79,99.9909123 C86.2241995,99.7278863 92,93.7884484 92,86.5 C92,79.2115516 86.2241995,73.2721137 79,73.0090877 Z" id="Combined-Shape" fill-opacity="0.1" fill="#00A5E5"></path>
                    <path d="M131.733887,112 C132.478678,111.167643 134.380859,108.729085 137.44043,104.684326 C139.405273,101.657308 140.721029,99.2391764 141.387695,97.4299316 L141.733887,75.6212091 L131.686934,75.6212091 L131.733887,112 Z" id="Path-3" stroke="#00A5E5" stroke-width="2" fill="#E5F6FC"></path>
                    <path d="M118,9 L124,9 L124,16.7615778 C139.217696,28.658331 149,47.1867758 149,68 C149,80.8821866 145.2525,92.8890978 138.788199,102.990035 C127.238573,121.03716 107.016322,133 84,133 C48.1014913,133 19,103.898509 19,68 C19,47.1867758 28.782304,28.658331 44,16.7615778 L44,9 L50,9 L50,1 L118,1 L118,9 Z" id="Combined-Shape" stroke="#00A5E5" stroke-width="2"></path>
                    <rect id="Rectangle-27" x="45" y="10" width="78" height="124"></rect>
                    <rect id="Rectangle-3" fill="#00A5E5" x="43" y="8.43554688" width="2" height="110.564453"></rect>
                    <rect id="Rectangle-7" stroke="#00A5E5" stroke-width="2" fill="#E5F6FC" x="52" y="18" width="63" height="13"></rect>
                    <rect id="Rectangle-7" stroke="#00A5E5" stroke-width="2" fill="#E5F6FC" x="52" y="38" width="63" height="13"></rect>
                    <rect id="Rectangle-7" stroke="#00A5E5" stroke-width="2" fill="#E5F6FC" x="52" y="58" width="63" height="13"></rect>
                    <rect id="Rectangle-7" stroke="#00A5E5" stroke-width="2" fill="#E5F6FC" x="52" y="78" width="63" height="13"></rect>
                    <rect id="Rectangle-7" stroke="#00A5E5" stroke-width="2" fill="#E5F6FC" x="52" y="98" width="63" height="13"></rect>
                    <rect id="Rectangle-3" fill="#00A5E5" x="123" y="8.43554688" width="2" height="110.564453"></rect>
                    <rect id="Rectangle-8" fill="#00A5E5" x="49" y="2" width="2" height="6"></rect>
                    <rect id="Rectangle-8" fill="#00A5E5" x="117" y="2" width="2" height="6"></rect>
                    <rect id="Rectangle-4" fill="#00A5E5" x="49" y="0" width="70" height="2"></rect>
                    <rect id="Rectangle-4" fill="#00A5E5" x="43" y="8" width="82" height="2"></rect>
                </g>
            </g>
        </g>
    </g>
</svg>