<?xml version="1.0" encoding="UTF-8"?><!DOCTYPE svg PUBLIC "-//W3C//DTD SVG 1.1//EN" "http://www.w3.org/Graphics/SVG/1.1/DTD/svg11.dtd"><svg xmlns="http://www.w3.org/2000/svg"><symbol id="arrow" viewBox="0 0 30 18.41"><title>arrow</title><path d="M-.002 9.205l9.2-9.2 2.312 2.313-9.2 9.2z"/><path d="M0 9.21l2.313-2.313 9.199 9.2L9.2 18.409z"/><path d="M1.65 7.57H30v3.27H1.65z"/></symbol><symbol id="caret-circled" viewBox="0 0 30 30"><title>caret-circled</title><path d="M15 0a15 15 0 1 0 15 15A15 15 0 0 0 15 0zm0 29a14 14 0 1 1 14-14 14 14 0 0 1-14 14zM10 15.63L20 5.62"/><path d="M9.379 15L19.377 5l1.252 1.252-9.999 9.998zM10 14.37l10 10"/><path d="M9.376 14.993l1.252-1.252 9.998 9.999-1.252 1.252z"/></symbol><symbol id="caret" viewBox="0 0 11.25 20"><title>caret</title><path d="M.62 10.63L10.63.62M-.001 10L9.997 0l1.252 1.252-9.999 9.998zM.63 9.37l10 10"/><path d="M-.004 9.993l1.252-1.252 9.998 9.999-1.252 1.252z"/></symbol><symbol id="question" viewBox="0 0 18.17 30"><title>question</title><path d="M6.08 20.75a17.79 17.79 0 0 1 .15-2.45 8.51 8.51 0 0 1 .51-2 7.28 7.28 0 0 1 .95-1.68 11.38 11.38 0 0 1 1.45-1.56q.69-.6 1.27-1.18a9.64 9.64 0 0 0 1-1.15 4.82 4.82 0 0 0 .67-1.2 3.94 3.94 0 0 0 .23-1.36 3.62 3.62 0 0 0-.8-2.56 3.07 3.07 0 0 0-2.35-.85 4 4 0 0 0-1.22.19 2.85 2.85 0 0 0-1.06.61 3.09 3.09 0 0 0-.75 1.08 4.17 4.17 0 0 0-.3 1.56H0a8.72 8.72 0 0 1 .75-3.66A7.21 7.21 0 0 1 2.7 2 8.18 8.18 0 0 1 5.59.5 12.52 12.52 0 0 1 9.17 0a12.67 12.67 0 0 1 3.79.52A7.8 7.8 0 0 1 15.78 2a6.56 6.56 0 0 1 1.76 2.48 8.75 8.75 0 0 1 .61 3.38 6.75 6.75 0 0 1-.4 2.4 8.62 8.62 0 0 1-1.09 2 14.61 14.61 0 0 1-1.58 1.88q-.89.88-1.87 1.78a6.93 6.93 0 0 0-.94 1 5.33 5.33 0 0 0-.6 1.1 5.17 5.17 0 0 0-.32 1.23 13 13 0 0 0-.11 1.44zm-.58 6.19a3.21 3.21 0 0 1 .23-1.23 2.88 2.88 0 0 1 .66-1 3.1 3.1 0 0 1 1-.66 3.89 3.89 0 0 1 2.7 0 3.1 3.1 0 0 1 1 .66 2.88 2.88 0 0 1 .66 1 3.21 3.21 0 0 1 .33 1.23 3.15 3.15 0 0 1-.23 1.21 2.88 2.88 0 0 1-.66 1 3 3 0 0 1-1 .65 4.05 4.05 0 0 1-2.7 0 3 3 0 0 1-1-.65 2.88 2.88 0 0 1-.66-1 3.15 3.15 0 0 1-.33-1.21z"/></symbol><symbol id="tick-circle" viewBox="0 0 30 30"><title>tick-circle</title><path d="M15 0a15 15 0 1 0 15 15A15 15 0 0 0 15 0zm-1.29 19.32l-.17.17-4.33-4.33 1.41-1.41 3 3 5.83-5.83 1.41 1.41z"/></symbol><symbol id="tick" viewBox="0 0 17.42 12.92"><title>tick</title><path d="M6.71 12.66l.06.06 10.65-10.6L15.3 0 6.56 8.74 2.12 4.3 0 6.46l6.5 6.5z"/></symbol></svg>